<svg xmlns="http://www.w3.org/2000/svg" xmlns:xlink="http://www.w3.org/1999/xlink" version="1.1" style="shape-rendering:geometricPrecision; text-rendering:geometricPrecision; image-rendering:optimizeQuality; fill-rule:evenodd; clip-rule:evenodd" viewBox="356.5 260.48 486.25 404.14" height="100%" width="100%">
<g><path style="opacity:0.753" fill="#624245" d="M 529.5,261.5 C 575.998,260.335 622.665,260.168 669.5,261C 646.32,284.347 622.986,307.514 599.5,330.5C 576.146,307.479 552.812,284.479 529.5,261.5 Z"/></g>
<g><path style="opacity:0.995" fill="#a54351" d="M 840.5,261.5 C 842.498,395.496 843.165,529.829 842.5,664.5C 817.167,664.5 791.833,664.5 766.5,664.5C 766.333,554.833 766.5,445.166 767,335.5C 791.702,310.965 816.202,286.299 840.5,261.5 Z"/></g>
<g><path style="opacity:1" fill="#434343" d="M 356.5,261.5 C 382.082,285.581 407.249,310.247 432,335.5C 432.667,437.167 432.667,538.833 432,640.5C 424.167,648.333 416.333,656.167 408.5,664C 391.17,664.5 373.837,664.667 356.5,664.5C 356.5,530.167 356.5,395.833 356.5,261.5 Z"/></g>
<g><path style="opacity:0.337" fill="#764248" d="M 460.5,365.5 C 459.501,442.665 459.167,519.998 459.5,597.5C 458.168,519.999 458.168,442.332 459.5,364.5C 460.107,364.624 460.44,364.957 460.5,365.5 Z"/></g>
<g><path style="opacity:0.8" fill="#424242" d="M 460.5,365.5 C 485.132,389.632 509.632,413.965 534,438.5C 534.833,467.172 534.667,495.839 533.5,524.5C 509.118,549.216 484.451,573.549 459.5,597.5C 459.167,519.998 459.501,442.665 460.5,365.5 Z"/></g>
<g><path style="opacity:0.337" fill="#764248" d="M 738.5,380.5 C 738.56,379.957 738.893,379.624 739.5,379.5C 740.832,474.332 740.832,568.999 739.5,663.5C 739.833,568.999 739.499,474.665 738.5,380.5 Z"/></g>
<g><path style="opacity:0.8" fill="#a44351" d="M 738.5,380.5 C 739.499,474.665 739.833,568.999 739.5,663.5C 714.672,664.498 689.672,664.831 664.5,664.5C 664.333,594.166 664.5,523.833 665,453.5C 689.368,428.965 713.868,404.632 738.5,380.5 Z"/></g>
<g><path style="opacity:0.596" fill="#4d4242" d="M 561.5,452.5 C 569.674,459.841 577.341,467.674 584.5,476C 577.377,484.124 569.877,491.958 562,499.5C 561.5,499 561,498.5 560.5,498C 561.461,482.966 561.795,467.799 561.5,452.5 Z"/></g>
<g><path style="opacity:0.6" fill="#a44351" d="M 636.5,464.5 C 637.205,467.228 637.872,470.061 638.5,473C 638.477,536.822 638.143,600.656 637.5,664.5C 612.5,664.5 587.5,664.5 562.5,664.5C 562.333,622.499 562.5,580.499 563,538.5C 587.729,513.938 612.229,489.272 636.5,464.5 Z"/></g>
<g><path style="opacity:0.761" fill="#564245" d="M 440.5,660.5 C 448.445,654.224 455.778,647.224 462.5,639.5C 486.083,614.75 510.25,590.416 535,566.5C 535.5,599.165 535.667,631.832 535.5,664.5C 502.827,664.833 470.16,664.5 437.5,663.5C 438.188,662.145 439.188,661.145 440.5,660.5 Z"/></g>
<g><path style="opacity:0.753" fill="#694246" d="M 462.5,639.5 C 455.778,647.224 448.445,654.224 440.5,660.5C 447.222,652.776 454.555,645.776 462.5,639.5 Z"/></g>
</svg>